#!OML:ASF G:\JayActor3\Patient Classification 1\Patient 1\Session 5\male.ASF
:FULLY-SPECIFIED
:DEGREES
587
root -5.13169 17.1395 14.9871 -6.14762 59.7152 -8.36953
lowerback 3.50433 -1.61007 1.69006
upperback 1.10401 -2.08087 -0.138753
thorax -0.896214 -1.03683 -1.00026
lowerneck -0.895043 -0.327007 1.50823
upperneck 4.9107 -0.535319 1.81223
head 1.6714 -0.194631 0.301287
rclavicle -3.4191e-014 -1.59028e-014
rhumerus -31.7261 -11.278 -86.4529
rradius 19.2204
rwrist 14.8846
rhand -18.3997 -5.14717
rfingers 7.12502
rthumb 7.88456 -34.9801
lclavicle -3.4191e-014 -1.59028e-014
lhumerus -31.5708 26.3607 74.7266
lradius 8.91641
lwrist -4.64346
lhand -21.8367 13.1
lfingers 7.12502
lthumb 4.56642 43.0308
rfemur -12.0702 10.0363 26.4251
rtibia 32.146
rfoot -18.5352 -2.2917
rtoes 11.7327
lfemur -0.161231 10.3637 -19.4969
ltibia 13.7393
lfoot -14.3042 1.41291
ltoes 0.980919
588
root -5.13545 17.1375 14.9885 -6.1911 59.9655 -8.38053
lowerback 3.5648 -1.58735 1.6949
upperback 1.11478 -2.04925 -0.151888
thorax -0.918665 -1.02102 -1.01624
lowerneck -0.897355 -0.217347 1.61505
upperneck 4.85413 -0.386055 1.70552
head 1.65274 -0.121236 0.252704
rclavicle 5.53615e-014 -1.27222e-014
rhumerus -31.7829 -11.382 -86.4063
rradius 19.2201
rwrist 14.9079
rhand -18.4233 -5.15713
rfingers 7.12502
rthumb 7.86177 -34.991
lclavicle 5.53615e-014 -1.27222e-014
lhumerus -31.437 26.0981 74.9223
lradius 9.00602
lwrist -4.39976
lhand -21.8436 13.0754
lfingers 7.12502
lthumb 4.55977 43.0063
rfemur -12.0716 9.83721 26.4243
rtibia 32.2318
rfoot -18.6608 -2.49001
rtoes 11.5642
lfemur -0.184507 10.3023 -19.4802
ltibia 13.7763
lfoot -14.3465 1.11983
ltoes 1.12084
589
root -5.13926 17.1354 14.9899 -6.24247 60.2522 -8.39719
lowerback 3.62717 -1.55953 1.70507
upperback 1.12611 -2.01061 -0.165552
thorax -0.941558 -1.0017 -1.03606
lowerneck -0.895648 -0.0959742 1.72671
upperneck 4.79123 -0.220859 1.59201
head 1.63175 -0.0400407 0.201483
rclavicle -3.8117e-014 3.97569e-015
rhumerus -31.8482 -11.5182 -86.3407
rradius 19.208
rwrist 14.9574
rhand -18.4524 -5.17105
rfingers 7.12502
rthumb 7.83372 -35.0059
lclavicle -3.8117e-014 3.97569e-015
lhumerus -31.2827 25.7921 75.1513
lradius 9.10461
lwrist -4.12007
lhand -21.8641 13.0407
lfingers 7.12502
lthumb 4.54003 42.9721
rfemur -12.0694 9.61933 26.4225
rtibia 32.3195
rfoot -18.7972 -2.71124
rtoes 11.3836
lfemur -0.212669 10.2307 -19.4639
ltibia 13.8185
lfoot -14.3913 0.809305
ltoes 1.23411
590
root -5.1431 17.1332 14.9913 -6.30325 60.5789 -8.42077
lowerback 3.69191 -1.5263 1.7212
upperback 1.13786 -1.96448 -0.179755
thorax -0.965289 -0.978635 -1.06014
lowerneck -0.887338 0.0366954 1.84359
upperneck 4.72042 -0.0401818 1.47094
head 1.60759 0.0486977 0.1473
rclavicle -3.92103e-014 -1.59028e-015
rhumerus -31.9231 -11.688 -86.2551
rradius 19.1831
rwrist 15.0335
rhand -18.4897 -5.18828
rfingers 7.12502
rthumb 7.79775 -35.0245
lclavicle -3.92103e-014 -1.59028e-015
lhumerus -31.1077 25.4387 75.4156
lradius 9.21274
lwrist -3.80327
lhand -21.891 13.0079
lfingers 7.12502
lthumb 4.51406 42.9398
rfemur -12.0629 9.38218 26.42
rtibia 32.4086
rfoot -18.9445 -2.95785
rtoes 11.1854
lfemur -0.245535 10.1478 -19.4482
ltibia 13.8657
lfoot -14.4389 0.483981
ltoes 1.31734
591
root -5.14696 17.1311 14.9928 -6.37432 60.95 -8.45281
lowerback 3.7584 -1.48854 1.7433
upperback 1.14955 -1.91202 -0.194179
thorax -0.990005 -0.952415 -1.08811
lowerneck -0.873422 0.18193 1.96602
upperneck 4.64425 0.157612 1.34177
head 1.58137 0.145841 0.0899418
rclavicle -6.60959e-015 -4.77083e-015
rhumerus -32.0083 -11.8952 -86.1477
rradius 19.1452
rwrist 15.1433
rhand -18.5303 -5.21747
rfingers 7.12502
rthumb 7.7585 -35.0551
lclavicle -6.60959e-015 -4.77083e-015
lhumerus -30.9124 25.036 75.7156
lradius 9.33111
lwrist -3.44509
lhand -21.9201 12.9914
lfingers 7.12502
lthumb 4.48592 42.9239
rfemur -12.0523 9.12547 26.4166
rtibia 32.4985
rfoot -19.1034 -3.23306
rtoes 10.9693
lfemur -0.284204 10.048 -19.434
ltibia 13.9176
lfoot -14.4897 0.151551
ltoes 1.36674
592
root -5.15081 17.1289 14.9944 -6.45457 61.3686 -8.49167
lowerback 3.82642 -1.446 1.77008
upperback 1.16127 -1.85296 -0.208863
thorax -1.01542 -0.922903 -1.11935
lowerneck -0.852356 0.339138 2.08948
upperneck 4.56092 0.371711 1.2091
head 1.55235 0.250978 0.0315514
rclavicle 5.97348e-014 -6.36111e-015
rhumerus -32.105 -12.142 -86.0152
rradius 19.0906
rwrist 15.2924
rhand -18.5815 -5.2348
rfingers 7.12502
rthumb 7.70911 -35.0743
lclavicle 5.97348e-014 -6.36111e-015
lhumerus -30.6973 24.581 76.053
lradius 9.46002
lwrist -3.04552
lhand -21.9605 12.9702
lfingers 7.12502
lthumb 4.44696 42.9036
rfemur -12.0369 8.85124 26.411
rtibia 32.5892
rfoot -19.274 -3.53875
rtoes 10.7388
lfemur -0.327714 9.9283 -19.4235
ltibia 13.9728
lfoot -14.5447 -0.181864
ltoes 1.37028
593
root -5.15462 17.1269 14.9961 -6.54678 61.838 -8.54042
lowerback 3.8952 -1.3987 1.80261
upperback 1.17325 -1.78727 -0.223598
thorax -1.04085 -0.890082 -1.15429
lowerneck -0.826356 0.508838 2.21687
upperneck 4.47309 0.602752 1.06992
head 1.5219 0.364476 -0.0293015
rclavicle 5.58585e-014 0
rhumerus -32.2128 -12.4281 -85.8587
rradius 19.0207
rwrist 15.4764
rhand -18.6451 -5.25126
rfingers 7.12502
rthumb 7.64769 -35.093
lclavicle 5.58585e-014 0
lhumerus -30.4631 24.0702 76.4285
lradius 9.60052
lwrist -2.60235
lhand -22.0039 12.9647
lfingers 7.12502
lthumb 4.40497 42.8989
rfemur -12.0168 8.56128 26.4045
rtibia 32.6809
rfoot -19.4565 -3.87836
rtoes 10.4926
lfemur -0.374918 9.78671 -19.4162
ltibia 14.0287
lfoot -14.6034 -0.510926
ltoes 1.33246
594
root -5.15839 17.125 14.998 -6.64957 62.3618 -8.59765
lowerback 3.96399 -1.34728 1.83881
upperback 1.18557 -1.71589 -0.238197
thorax -1.06573 -0.854409 -1.19156
lowerneck -0.79596 0.689865 2.35165
upperneck 4.38087 0.849286 0.918534
head 1.49032 0.485572 -0.095007
rclavicle -7.25564e-015 -7.95139e-015
rhumerus -32.3314 -12.7436 -85.6816
rradius 18.9371
rwrist 15.6903
rhand -18.7152 -5.26408
rfingers 7.12502
rthumb 7.58003 -35.1082
lclavicle -7.25564e-015 -7.95139e-015
lhumerus -30.2096 23.503 76.8436
lradius 9.74989
lwrist -2.11587
lhand -22.0575 12.9636
lfingers 7.12502
lthumb 4.35325 42.8988
rfemur -11.9923 8.25718 26.3959
rtibia 32.7737
rfoot -19.6494 -4.2576
rtoes 10.2225
lfemur -0.424813 9.62167 -19.4143
ltibia 14.0829
lfoot -14.6673 -0.823772
ltoes 1.2531
595
root -5.16209 17.1232 15 -6.76411 62.9434 -8.66453
lowerback 4.03217 -1.2916 1.87884
upperback 1.19814 -1.63862 -0.252557
thorax -1.08977 -0.815788 -1.23118
lowerneck -0.758105 0.882221 2.48854
upperneck 4.28273 1.11131 0.760802
head 1.45667 0.61428 -0.162921
rclavicle 1.64991e-014 -7.15625e-015
rhumerus -32.4622 -13.0926 -85.4814
rradius 18.8404
rwrist 15.9345
rhand -18.7902 -5.28059
rfingers 7.12502
rthumb 7.50769 -35.1274
lclavicle 1.64991e-014 -7.15625e-015
lhumerus -29.9387 22.8756 77.2988
lradius 9.90933
lwrist -1.58249
lhand -22.118 12.9681
lfingers 7.12502
lthumb 4.29482 42.9046
rfemur -11.9627 7.94142 26.3851
rtibia 32.8675
rfoot -19.8557 -4.67835
rtoes 9.93239
lfemur -0.476259 9.42972 -19.4184
ltibia 14.1337
lfoot -14.7341 -1.10276
ltoes 1.11164
596
root -5.16565 17.1215 15.0021 -6.89098 63.585 -8.74114
lowerback 4.09896 -1.23213 1.92203
upperback 1.21161 -1.55615 -0.266847
thorax -1.11185 -0.774547 -1.27295
lowerneck -0.713642 1.08592 2.62814
upperneck 4.17977 1.38882 0.595923
head 1.42161 0.750626 -0.23343
rclavicle 1.10325e-014 -7.95139e-016
rhumerus -32.6041 -13.4768 -85.2572
rradius 18.7286
rwrist 16.2142
rhand -18.8726 -5.28978
rfingers 7.12502
rthumb 7.42812 -35.1394
lclavicle 1.10325e-014 -7.95139e-016
lhumerus -29.6527 22.1911 77.7911
lradius 10.0774
lwrist -1.00626
lhand -22.1894 12.9758
lfingers 7.12502
lthumb 4.22587 42.9137
rfemur -11.9274 7.61551 26.371
rtibia 32.9624
rfoot -20.0744 -5.13913
rtoes 9.62467
lfemur -0.526915 9.21238 -19.4301
ltibia 14.1798
lfoot -14.8078 -1.33121
ltoes 0.890898
